# xmcd CD database file
#
# Track frame offsets:
#	150
#	4445
#	10442
#	25319
#	84251
#	115313
#	170471
#	197259
#
# Disc length: 3475 seconds
#
# Revision: 0
# Processed by: cddbd v1.5.1PL0 Copyright (c) Steve Scherf et al.
# Submitted via: CDex 1.51
#
DISCID=590d9108
DTITLE=Willie the Lion Smith - Memoirs of Willie the Lion Smith - Disk 1
DYEAR=1968
DGENRE=Blues
TTITLE0=Relaxin'
TTITLE1=Pre World War I Days
TTITLE2=Sand Dune and Alexander's Ragtime Band
TTITLE3=Ziegfield Follies and Clef Club
TTITLE4=Blue Skies
TTITLE5=Vaudeville Days
TTITLE6=Memories of Eubie Blake
TTITLE7=Memories of James P. Johnson
EXTD=YEAR: 1968
EXTT0=
EXTT1=
EXTT2=
EXTT3=
EXTT4=
EXTT5=
EXTT6=
EXTT7=
PLAYORDER=
